<?xml version="1.0" encoding="UTF-8"?>
<svg id="Layer_1" data-name="Layer 1" xmlns="http://www.w3.org/2000/svg" viewBox="0 0 342.74 78.62">
  <defs>
    <style>
      .cls-1 {
        fill: #fff;
      }

      .cls-2 {
        fill: #7c3aed;
      }
    </style>
  </defs>
  <g>
    <path class="cls-1" d="M142.78,61.05h-36.38c-.57,0-1.1-.1-1.6-.31-.49-.2-.91-.49-1.27-.84-.36-.36-.64-.78-.84-1.27-.21-.49-.31-1.02-.31-1.6V17.07h7.97v36.01h32.42v7.98Z"/>
    <path class="cls-1" d="M155.41,21.09h-7.97v-7.21h7.97v7.21ZM155.41,61.05h-7.97V27.9h7.97v33.16Z"/>
    <path class="cls-1" d="M198.55,61.05h-7.98v-18.4c0-1.04-.18-1.98-.54-2.81-.36-.83-.84-1.54-1.46-2.13-.61-.59-1.33-1.05-2.16-1.36-.83-.32-1.72-.48-2.68-.48h-13.96v25.18h-7.98v-29.2c0-.55.1-1.07.31-1.55.21-.48.49-.9.86-1.26.37-.36.8-.64,1.29-.84.49-.2,1.01-.31,1.56-.31h17.97c1,0,2.06.11,3.17.34s2.22.59,3.31,1.09c1.09.5,2.14,1.13,3.13,1.9.99.77,1.87,1.7,2.64,2.79.77,1.09,1.38,2.36,1.82,3.79.45,1.43.68,3.05.68,4.85v18.4Z"/>
    <path class="cls-1" d="M240.45,64.24c0,1.37-.17,2.6-.52,3.7-.35,1.09-.81,2.05-1.38,2.88-.57.83-1.24,1.53-1.99,2.12-.76.58-1.55,1.06-2.38,1.43s-1.67.64-2.52.81c-.85.17-1.65.26-2.41.26h-14.39v-7.97h14.39c1.08,0,1.89-.28,2.42-.83.53-.55.8-1.35.8-2.39v-25.18c0-1.04-.27-1.83-.8-2.38-.53-.54-1.34-.81-2.42-.81h-14.39c-.98,0-1.76.3-2.33.9-.57.6-.86,1.37-.86,2.29v10.8c0,1.04.28,1.84.83,2.39.55.55,1.36.83,2.42.83h14.32v7.98h-14.39c-.76,0-1.55-.09-2.39-.26-.84-.17-1.67-.44-2.5-.81s-1.62-.84-2.38-1.43-1.42-1.29-1.99-2.12-1.03-1.79-1.38-2.88c-.35-1.09-.52-2.33-.52-3.7v-10.8c0-.76.09-1.55.26-2.39.17-.84.45-1.67.81-2.5.37-.83.84-1.62,1.43-2.38.58-.76,1.29-1.42,2.12-1.99.83-.57,1.79-1.03,2.87-1.38s2.31-.52,3.68-.52h14.39c.76,0,1.56.09,2.41.26.85.17,1.69.44,2.52.81.83.37,1.62.84,2.38,1.43.76.58,1.42,1.29,1.99,2.12.57.83,1.03,1.78,1.38,2.87.35,1.08.52,2.31.52,3.68v25.18Z"/>
    <path class="cls-1" d="M282.75,57.03c0,.57-.1,1.1-.31,1.6-.21.49-.49.92-.84,1.27-.36.36-.78.64-1.26.84s-1,.31-1.55.31h-18.04c-.98,0-2.03-.11-3.14-.34-1.12-.22-2.21-.59-3.3-1.09-1.09-.5-2.13-1.13-3.14-1.9-1.01-.77-1.9-1.7-2.65-2.79-.76-1.09-1.37-2.36-1.82-3.79-.46-1.43-.69-3.05-.69-4.85v-18.4h7.98v18.4c0,1.04.18,1.98.54,2.81.36.83.84,1.54,1.46,2.13.61.59,1.33,1.05,2.16,1.37.83.32,1.72.47,2.68.47h13.96v-25.18h7.97v29.14Z"/>
    <path class="cls-1" d="M297.09,21.09h-7.97v-7.21h7.97v7.21ZM297.09,61.05h-7.97V27.9h7.97v33.16Z"/>
    <path class="cls-1" d="M339.85,49.86c0,1.37-.17,2.6-.52,3.7-.35,1.09-.81,2.06-1.38,2.88s-1.24,1.53-1.99,2.12c-.76.58-1.55,1.06-2.38,1.43s-1.67.64-2.52.81c-.85.17-1.65.26-2.41.26h-14.39c-1.37,0-2.6-.17-3.68-.52s-2.04-.81-2.87-1.4-1.53-1.25-2.12-2.01c-.58-.76-1.06-1.55-1.43-2.38s-.64-1.67-.81-2.51-.26-1.64-.26-2.38v-10.8c0-2.04.37-3.78,1.12-5.2.75-1.42,1.68-2.58,2.79-3.47,1.11-.89,2.33-1.53,3.63-1.92,1.31-.39,2.52-.58,3.62-.58h14.39v7.98h-14.33c-1.06,0-1.87.27-2.42.81-.55.54-.83,1.33-.83,2.38v10.74c0,1.08.27,1.9.81,2.45.54.55,1.33.83,2.38.83h14.39c1.08,0,1.89-.28,2.42-.83.53-.55.8-1.35.8-2.39V13.88h7.97v35.98Z"/>
  </g>
  <g>
    <path class="cls-2" d="M16.39,18.41l-8.28,8.28c-6.97,6.97-6.97,18.26,0,25.23l8.75,8.75c-.31-.76-.47-1.58-.47-2.46V18.41Z"/>
    <path class="cls-2" d="M20.16,63.97l7.75,7.75c6.97,6.97,18.26,6.97,25.23,0l7.28-7.28H22.62c-.88,0-1.7-.16-2.46-.47Z"/>
    <path class="cls-2" d="M72.78,52.08l.16-.16c6.97-6.97,6.97-18.26,0-25.23L53.14,6.89C46.45.2,35.76-.06,28.75,6.11v45.97h44.03Z"/>
  </g>
</svg>