<?xml version="1.0" encoding="UTF-8"?>
<svg id="Layer_1" data-name="Layer 1" xmlns="http://www.w3.org/2000/svg" viewBox="0 0 349.66 96.49">
  <defs>
    <style>
      .cls-1 {
        fill: #fff;
      }

      .cls-2 {
        fill: #8b5cf6;
      }
    </style>
  </defs>
  <g>
    <path class="cls-1" d="M149.99,78.63h-36.38c-.57,0-1.1-.1-1.6-.31-.49-.2-.92-.49-1.27-.84-.36-.36-.64-.78-.84-1.27-.21-.49-.31-1.02-.31-1.6v-39.97h7.97v36.01h32.42v7.98Z"/>
    <path class="cls-1" d="M162.63,38.66h-7.97v-7.21h7.97v7.21ZM162.63,78.63h-7.97v-33.16h7.97v33.16Z"/>
    <path class="cls-1" d="M205.77,78.63h-7.98v-18.4c0-1.04-.18-1.98-.54-2.81-.36-.83-.84-1.54-1.46-2.13s-1.33-1.05-2.16-1.37c-.83-.32-1.72-.48-2.68-.48h-13.96v25.18h-7.98v-29.2c0-.55.1-1.07.31-1.55.2-.48.49-.9.86-1.26.37-.36.8-.64,1.29-.84.49-.2,1.01-.31,1.56-.31h17.97c1,0,2.06.11,3.17.34,1.11.23,2.22.59,3.31,1.09,1.09.5,2.14,1.13,3.13,1.9.99.77,1.87,1.7,2.64,2.79s1.38,2.36,1.83,3.79c.45,1.43.67,3.05.67,4.85v18.4Z"/>
    <path class="cls-1" d="M247.67,81.82c0,1.37-.17,2.6-.52,3.7-.35,1.09-.81,2.05-1.38,2.88-.57.83-1.24,1.53-1.99,2.12-.76.58-1.55,1.06-2.38,1.43s-1.67.64-2.52.81-1.65.26-2.41.26h-14.39v-7.97h14.39c1.08,0,1.89-.28,2.42-.83.53-.55.8-1.35.8-2.39v-25.18c0-1.04-.27-1.83-.8-2.38-.53-.54-1.34-.81-2.42-.81h-14.39c-.98,0-1.76.3-2.33.91s-.86,1.37-.86,2.29v10.8c0,1.04.28,1.84.83,2.39.55.55,1.36.83,2.42.83h14.32v7.98h-14.39c-.76,0-1.55-.09-2.39-.26s-1.67-.44-2.5-.81-1.62-.84-2.38-1.43c-.76-.58-1.42-1.29-1.99-2.12s-1.03-1.79-1.38-2.88c-.35-1.09-.52-2.33-.52-3.7v-10.8c0-.76.09-1.55.26-2.39.17-.84.44-1.67.81-2.5s.84-1.62,1.43-2.38,1.29-1.42,2.12-1.99c.83-.57,1.78-1.03,2.87-1.38s2.31-.52,3.68-.52h14.39c.76,0,1.56.09,2.41.26s1.69.44,2.52.81,1.62.84,2.38,1.43c.76.58,1.42,1.29,1.99,2.12.57.83,1.03,1.78,1.38,2.87s.52,2.31.52,3.68v25.18Z"/>
    <path class="cls-1" d="M289.96,74.61c0,.57-.1,1.1-.31,1.6-.2.49-.49.92-.84,1.27s-.78.64-1.26.84-1,.31-1.55.31h-18.04c-.98,0-2.03-.11-3.14-.34-1.11-.22-2.21-.59-3.3-1.09-1.08-.5-2.13-1.13-3.14-1.9s-1.9-1.7-2.65-2.79-1.37-2.36-1.83-3.79-.69-3.05-.69-4.85v-18.4h7.98v18.4c0,1.04.18,1.98.54,2.81.36.83.84,1.54,1.46,2.13.61.59,1.33,1.05,2.16,1.37.83.32,1.72.47,2.68.47h13.96v-25.18h7.97v29.14Z"/>
    <path class="cls-1" d="M304.31,38.66h-7.97v-7.21h7.97v7.21ZM304.31,78.63h-7.97v-33.16h7.97v33.16Z"/>
    <path class="cls-1" d="M347.07,67.44c0,1.37-.17,2.6-.52,3.7-.35,1.09-.81,2.06-1.38,2.88-.57.83-1.24,1.53-1.99,2.12s-1.55,1.06-2.38,1.43-1.67.64-2.52.81-1.65.26-2.41.26h-14.39c-1.37,0-2.6-.17-3.68-.52s-2.04-.81-2.87-1.4-1.53-1.25-2.12-2.01c-.58-.76-1.06-1.55-1.43-2.38-.37-.83-.64-1.67-.81-2.51s-.26-1.64-.26-2.38v-10.8c0-2.04.37-3.78,1.12-5.2.75-1.42,1.68-2.58,2.79-3.47,1.11-.89,2.33-1.53,3.63-1.92,1.31-.39,2.52-.58,3.62-.58h14.39v7.97h-14.33c-1.06,0-1.87.27-2.42.81-.55.54-.83,1.33-.83,2.38v10.74c0,1.08.27,1.9.81,2.45.54.55,1.33.83,2.38.83h14.39c1.08,0,1.89-.28,2.42-.83.53-.55.8-1.35.8-2.39V31.46h7.97v35.98Z"/>
  </g>
  <g>
    <path class="cls-2" d="M19.71,21.78l-10.34,10.34c-8.7,8.7-8.7,22.82,0,31.52l10.93,10.93c-.39-.95-.59-1.97-.59-3.07V21.78Z"/>
    <path class="cls-2" d="M24.42,78.69l9.68,9.68c8.7,8.7,22.82,8.7,31.52,0l9.09-9.09H27.49c-1.1,0-2.13-.2-3.07-.59Z"/>
    <path class="cls-2" d="M90.15,63.85l.2-.2c8.7-8.7,8.7-22.82,0-31.52l-24.73-24.73c-8.36-8.36-21.72-8.69-30.47-.98v57.43h55Z"/>
  </g>
</svg>