<?xml version="1.0" encoding="UTF-8"?>
<svg id="Layer_1" data-name="Layer 1" xmlns="http://www.w3.org/2000/svg" viewBox="0 0 344 78">
  <defs>
    <style>
      .cls-1 {
        fill: #fff;
      }

      .cls-2 {
        fill: #7c3aed;
      }
    </style>
  </defs>
  <g>
    <path class="cls-1" d="M143.49,60.28h-36.27c-.57,0-1.1-.1-1.59-.3-.49-.2-.91-.48-1.27-.83-.36-.35-.64-.77-.84-1.25-.2-.48-.31-1.01-.31-1.57V17.04h7.95v35.4h32.33v7.84Z"/>
    <path class="cls-1" d="M156.08,20.99h-7.95v-7.09h7.95v7.09ZM156.08,60.28h-7.95V27.69h7.95v32.6Z"/>
    <path class="cls-1" d="M199.1,60.28h-7.95v-18.09c0-1.03-.18-1.94-.53-2.76-.36-.81-.84-1.51-1.45-2.1-.61-.58-1.33-1.03-2.16-1.34-.83-.31-1.72-.47-2.68-.47h-13.92v24.76h-7.95v-28.71c0-.54.1-1.05.31-1.52.2-.47.49-.88.86-1.24.37-.35.79-.63,1.29-.83.49-.2,1.01-.3,1.56-.3h17.92c1,0,2.05.11,3.16.33s2.21.58,3.3,1.07c1.09.49,2.13,1.12,3.12,1.87.99.75,1.87,1.67,2.63,2.74.76,1.08,1.37,2.32,1.82,3.72.45,1.41.67,3,.67,4.76v18.09Z"/>
    <path class="cls-1" d="M240.88,63.42c0,1.35-.17,2.56-.52,3.63-.35,1.07-.8,2.02-1.37,2.83-.57.81-1.23,1.51-1.99,2.08-.76.57-1.54,1.04-2.37,1.4s-1.66.63-2.51.8c-.85.17-1.65.26-2.4.26h-14.35v-7.84h14.35c1.08,0,1.89-.27,2.42-.81.53-.54.79-1.33.79-2.35v-24.76c0-1.03-.26-1.8-.79-2.34-.53-.53-1.34-.8-2.42-.8h-14.35c-.98,0-1.75.3-2.32.89-.57.59-.86,1.34-.86,2.25v10.61c0,1.03.27,1.81.83,2.35.55.54,1.36.81,2.42.81h14.28v7.84h-14.35c-.75,0-1.55-.09-2.39-.26-.84-.17-1.67-.44-2.49-.8s-1.62-.83-2.37-1.4-1.42-1.27-1.99-2.08-1.03-1.76-1.37-2.83c-.35-1.08-.52-2.29-.52-3.63v-10.61c0-.74.09-1.53.26-2.35.17-.82.44-1.64.81-2.46.37-.81.84-1.59,1.42-2.34.58-.74,1.28-1.4,2.11-1.96.83-.56,1.78-1.02,2.86-1.36s2.3-.51,3.67-.51h14.35c.75,0,1.55.09,2.4.26.85.17,1.68.44,2.51.8.83.36,1.61.83,2.37,1.4.75.57,1.42,1.27,1.99,2.08.57.81,1.03,1.75,1.37,2.82.35,1.07.52,2.27.52,3.62v24.76Z"/>
    <path class="cls-1" d="M283.06,56.33c0,.56-.1,1.09-.31,1.57-.2.48-.48.9-.84,1.25-.36.35-.78.63-1.25.83s-.99.3-1.54.3h-17.98c-.98,0-2.03-.11-3.14-.33-1.11-.22-2.21-.58-3.29-1.07-1.08-.49-2.13-1.12-3.14-1.87-1.01-.75-1.89-1.67-2.65-2.74-.75-1.08-1.36-2.32-1.82-3.72-.46-1.41-.69-3-.69-4.76v-18.09h7.95v18.09c0,1.03.18,1.94.54,2.76.36.81.84,1.51,1.45,2.1.61.58,1.33,1.03,2.16,1.34.83.31,1.72.47,2.68.47h13.92v-24.76h7.95v28.65Z"/>
    <path class="cls-1" d="M297.36,20.99h-7.95v-7.09h7.95v7.09ZM297.36,60.28h-7.95V27.69h7.95v32.6Z"/>
    <path class="cls-1" d="M340,49.28c0,1.35-.17,2.56-.52,3.63-.35,1.08-.81,2.02-1.38,2.83s-1.23,1.51-1.99,2.08c-.75.57-1.54,1.04-2.37,1.4s-1.66.63-2.51.8c-.85.17-1.65.26-2.4.26h-14.35c-1.37,0-2.59-.17-3.67-.51s-2.03-.8-2.86-1.37-1.53-1.23-2.11-1.97c-.58-.74-1.06-1.52-1.42-2.34s-.64-1.64-.81-2.47-.26-1.61-.26-2.34v-10.61c0-2.01.37-3.71,1.12-5.11.74-1.4,1.67-2.53,2.78-3.41,1.11-.87,2.32-1.5,3.62-1.88,1.3-.38,2.51-.57,3.61-.57h14.35v7.84h-14.29c-1.06,0-1.87.27-2.41.8-.55.53-.83,1.31-.83,2.34v10.55c0,1.07.27,1.87.81,2.41.54.54,1.33.81,2.37.81h14.35c1.08,0,1.89-.27,2.41-.81.53-.54.8-1.33.8-2.35V13.91h7.95v35.37Z"/>
  </g>
  <g>
    <path class="cls-2" d="M17.47,18.36l-8.26,8.14c-6.95,6.85-6.95,17.96,0,24.8l8.73,8.6c-.31-.74-.47-1.55-.47-2.42V18.36Z"/>
    <path class="cls-2" d="M21.22,63.15l7.73,7.62c6.95,6.85,18.21,6.85,25.16,0l7.26-7.16H23.68c-.88,0-1.7-.15-2.45-.46Z"/>
    <path class="cls-2" d="M73.69,51.46l.16-.16c6.95-6.85,6.95-17.96,0-24.8L54.11,7.04C47.44.46,36.78.21,29.79,6.27v45.19h43.9Z"/>
  </g>
</svg>