<?xml version="1.0" encoding="UTF-8"?>
<svg xmlns="http://www.w3.org/2000/svg" viewBox="0 0 373 78">
  <defs>
    <style>
      .cls-1 {
        fill: #fff;
      }

      .cls-2 {
        fill: #7c3aed;
      }
    </style>
  </defs>
  <g id="Layer_1" data-name="Layer 1">
    <g>
      <path class="cls-2" d="M17.47,18.36l-8.26,8.14c-6.95,6.85-6.95,17.96,0,24.8l8.73,8.6c-.31-.74-.47-1.55-.47-2.42V18.36Z"/>
      <path class="cls-2" d="M21.22,63.15l7.73,7.62c6.95,6.85,18.21,6.85,25.16,0l7.26-7.16H23.68c-.88,0-1.7-.15-2.45-.46Z"/>
      <path class="cls-2" d="M73.69,51.46l.16-.16c6.95-6.85,6.95-17.96,0-24.8L54.11,7.04C47.44.46,36.78.21,29.79,6.27v45.19h43.9Z"/>
    </g>
  </g>
  <g id="Layer_2" data-name="Layer 2">
    <g>
      <path class="cls-1" d="M142.58,59.94h-35.5c-.56,0-1.08-.1-1.56-.3-.48-.2-.89-.47-1.24-.82-.35-.35-.62-.76-.82-1.24-.2-.48-.3-1-.3-1.56V17.02h7.78v35.14h31.64v7.78Z"/>
      <path class="cls-1" d="M154.94,20.94h-7.78v-7.03h7.78v7.03ZM154.94,59.94h-7.78V27.58h7.78v32.35Z"/>
      <path class="cls-1" d="M205.01,56.62c0,.56-.1,1.08-.31,1.56-.21.48-.49.89-.84,1.24-.35.35-.76.62-1.24.82-.48.2-.99.3-1.53.3-.48,0-.96-.09-1.45-.27-.49-.18-.92-.47-1.3-.87l-28.43-29.69v30.23h-7.78V20.34c0-.8.22-1.52.67-2.17.45-.65,1.02-1.13,1.72-1.45.74-.3,1.5-.37,2.27-.22.78.15,1.45.51,2.01,1.09l28.43,29.66v-30.23h7.78v39.6Z"/>
      <path class="cls-1" d="M255.52,56.02c0,.56-.1,1.08-.3,1.56-.2.48-.47.89-.82,1.24-.35.35-.76.62-1.24.82-.48.2-1,.3-1.56.3h-28.07c-.72,0-1.49-.08-2.32-.25-.83-.17-1.65-.43-2.45-.79-.81-.36-1.58-.82-2.32-1.39-.74-.57-1.39-1.26-1.96-2.06-.57-.81-1.02-1.75-1.36-2.81s-.51-2.27-.51-3.61v-21.07c0-.72.08-1.49.25-2.32s.43-1.65.79-2.45c.36-.81.83-1.58,1.41-2.32.58-.74,1.27-1.39,2.08-1.96.81-.57,1.74-1.02,2.8-1.36s2.25-.51,3.59-.51h31.64v7.78h-31.64c-1.02,0-1.8.27-2.33.81-.54.54-.81,1.34-.81,2.39v21.01c0,1,.27,1.77.82,2.32.55.55,1.32.82,2.32.82h24.21v-9.76h-20.71v-7.84h24.57c.56,0,1.08.1,1.56.31.48.21.89.49,1.24.85.35.36.62.77.82,1.24.2.47.3.97.3,1.51v17.54Z"/>
      <path class="cls-1" d="M304.65,56.02c0,.56-.1,1.08-.3,1.56-.2.48-.48.89-.84,1.24-.36.35-.78.62-1.26.82-.48.2-.99.3-1.53.3h-17.54c-1.66,0-3.33-.18-5.03-.54-1.7-.36-3.34-.91-4.92-1.66-1.59-.75-3.08-1.7-4.47-2.86-1.4-1.16-2.62-2.53-3.67-4.12-1.05-1.59-1.87-3.4-2.47-5.45-.6-2.04-.9-4.32-.9-6.84v-21.46h7.78v21.46c0,2.2.3,4.05.91,5.57.61,1.52,1.38,2.78,2.32,3.8.94,1.02,1.96,1.82,3.08,2.39,1.12.58,2.18,1.01,3.19,1.29,1.01.28,1.9.45,2.66.52.77.07,1.27.1,1.51.1h13.68V17.02h7.78v39Z"/>
      <path class="cls-1" d="M319.57,20.94h-7.78v-7.03h7.78v7.03ZM319.57,59.94h-7.78V27.58h7.78v32.35Z"/>
      <path class="cls-1" d="M369.6,41.98c0,2.61-.45,5.02-1.36,7.21-.91,2.2-2.16,4.09-3.76,5.67-1.6,1.59-3.49,2.83-5.69,3.73-2.2.9-4.58,1.35-7.15,1.35h-21.01c-.56,0-1.08-.1-1.56-.3-.48-.2-.89-.47-1.24-.82-.35-.35-.62-.76-.82-1.24-.2-.48-.3-1-.3-1.56V20.94c0-.54.1-1.05.3-1.53.2-.48.47-.9.82-1.26.35-.36.76-.64,1.24-.84.48-.2,1-.3,1.56-.3h21.01c2.57,0,4.96.45,7.15,1.35,2.19.9,4.09,2.14,5.69,3.73,1.6,1.59,2.85,3.48,3.76,5.69.91,2.21,1.36,4.6,1.36,7.2v7ZM361.82,34.98c0-1.52-.24-2.9-.73-4.16-.49-1.26-1.18-2.33-2.08-3.22-.9-.89-1.97-1.58-3.22-2.06-1.25-.49-2.63-.73-4.15-.73h-17.15v27.36h17.15c1.52,0,2.9-.24,4.15-.73,1.25-.49,2.32-1.18,3.22-2.07.9-.89,1.59-1.96,2.08-3.2s.73-2.64.73-4.18v-7Z"/>
    </g>
  </g>
</svg>